<svg xmlns="http://www.w3.org/2000/svg" width="700" height="700" viewBox="0 0 700 700">
  <defs>
    <radialGradient id="paper" cx="50%" cy="45%" r="62%">
      <stop offset="0%" stop-color="#f4e7c8"/>
      <stop offset="75%" stop-color="#d9bf8f"/>
      <stop offset="100%" stop-color="#b08b5c"/>
    </radialGradient>
    <radialGradient id="ring" cx="50%" cy="50%" r="60%">
      <stop offset="0%" stop-color="#7a5b35"/>
      <stop offset="100%" stop-color="#2f1d10"/>
    </radialGradient>
    <filter id="shadow" x="-20%" y="-20%" width="140%" height="140%">
      <feDropShadow dx="0" dy="10" stdDeviation="10" flood-color="#000" flood-opacity="0.4"/>
    </filter>
  </defs>

  <rect width="700" height="700" fill="transparent"/>

  <g transform="translate(350 350)" filter="url(#shadow)">
    <circle r="300" fill="url(#ring)"/>
    <circle r="255" fill="url(#paper)"/>
    <circle r="286" fill="none" stroke="#c59b63" stroke-width="8"/>
    <circle r="246" fill="none" stroke="#8b6538" stroke-width="6"/>

    <g fill="#c9a066" stroke="#6f4f2a" stroke-width="4">
      <circle cx="0" cy="-282" r="24"/>
      <circle cx="0" cy="282" r="24"/>
      <circle cx="-282" cy="0" r="24"/>
      <circle cx="282" cy="0" r="24"/>
      <circle cx="199" cy="-199" r="16"/>
      <circle cx="-199" cy="199" r="16"/>
      <circle cx="199" cy="199" r="16"/>
      <circle cx="-199" cy="-199" r="16"/>
    </g>

    <g transform="translate(0 -70)">
      <path d="M -80 20 L -40 -40 L 0 20 L 40 -40 L 80 20 Z" fill="#ba2f2f" stroke="#6a1414" stroke-width="5"/>
      <rect x="-95" y="18" width="190" height="26" rx="12" fill="#d6b36a" stroke="#6f4f2a" stroke-width="5"/>
      <circle cx="0" cy="5" r="12" fill="#f3dc84" stroke="#6f4f2a" stroke-width="4"/>
    </g>

    <text x="0" y="80" text-anchor="middle" font-size="220" font-family="Segoe UI Emoji, Noto Color Emoji, sans-serif">??</text>
    <text x="0" y="230" text-anchor="middle" font-size="42" font-family="Cinzel, Georgia, serif" fill="#5e3f1d">REI FAMINTO</text>
  </g>
</svg>
